<?xml version="1.0" standalone="no"?>
<!DOCTYPE svg PUBLIC "-//W3C//DTD SVG 20010904//EN"
 "http://www.w3.org/TR/2001/REC-SVG-20010904/DTD/svg10.dtd">
<svg version="1.0" xmlns="http://www.w3.org/2000/svg"
 width="500.000000pt" height="500.000000pt" viewBox="0 0 500.000000 500.000000"
 preserveAspectRatio="xMidYMid meet">

<g transform="translate(0.000000,500.000000) scale(0.100000,-0.100000)"
fill="#000000" stroke="none">
<path d="M0 2500 l0 -2500 2500 0 2500 0 0 2500 0 2500 -2500 0 -2500 0 0
-2500z m1908 885 c16 -43 53 -71 233 -178 156 -91 245 -164 291 -236 43 -68
34 -79 -17 -23 -79 87 -129 118 -217 130 -69 11 -203 53 -217 69 -4 3 3 3 14
-1 40 -16 179 -36 187 -28 5 5 -30 31 -78 58 -181 103 -205 126 -219 207 -9
47 7 49 23 2z m1206 -8 c-10 -51 -50 -104 -101 -133 -169 -95 -203 -118 -196
-125 5 -5 44 -3 89 5 43 7 80 12 82 11 9 -8 -119 -47 -186 -57 -61 -8 -87 -18
-122 -44 -47 -34 -105 -92 -134 -134 l-18 -25 7 25 c31 108 133 201 366 334
123 70 185 121 195 161 9 36 24 20 18 -18z m-2379 -243 c39 -19 115 -59 170
-89 55 -30 107 -55 115 -55 8 0 22 -17 32 -38 15 -34 17 -35 23 -14 4 12 14
22 22 22 31 0 216 -76 356 -147 123 -62 160 -86 217 -141 76 -75 86 -102 96
-257 l5 -80 -24 75 c-28 90 -59 141 -119 197 -92 84 -177 113 -458 153 -324
47 -354 57 -453 149 -77 72 -79 85 -5 52 35 -16 79 -31 98 -35 35 -6 35 -6
-15 26 -72 45 -165 144 -203 216 l-33 62 53 -31 c29 -17 85 -47 123 -65z
m3681 48 c-39 -76 -112 -158 -188 -212 -65 -45 -68 -50 -37 -44 19 4 62 19 97
35 l63 28 -21 -29 c-31 -43 -106 -106 -156 -130 -46 -23 -123 -38 -348 -71
-197 -28 -263 -43 -339 -77 -122 -56 -203 -153 -242 -292 l-15 -55 4 80 c10
170 37 222 155 309 90 66 460 236 514 236 8 0 18 -10 22 -22 6 -21 8 -20 23
14 10 21 24 38 32 38 8 0 53 21 100 46 47 25 141 75 210 111 69 35 129 68 135
74 17 17 15 9 -9 -39z m-2072 -369 c-131 -198 -331 -281 -539 -221 l-40 12 73
8 c102 11 173 33 284 90 91 46 207 125 237 162 31 37 21 4 -15 -51z m497 -95
c107 -60 218 -96 314 -105 90 -7 82 -17 -29 -33 -185 -28 -351 54 -469 230
-20 30 -37 58 -37 62 0 5 31 -18 69 -49 37 -32 106 -79 152 -105z m-1811 43
c36 -6 130 -20 210 -32 119 -17 241 -46 256 -61 1 -2 -30 -4 -69 -4 -40 -1
-108 -9 -152 -19 -139 -31 -233 -8 -315 77 -45 46 -50 60 -17 54 12 -3 51 -9
87 -15z m3050 10 c0 -17 -80 -90 -120 -111 -63 -32 -121 -35 -255 -10 -79 14
-134 19 -165 15 -25 -4 -42 -4 -39 -1 19 20 139 49 296 72 98 14 198 29 223
34 25 4 48 8 53 9 4 0 7 -3 7 -8z m-2622 -129 c19 -12 -154 -91 -214 -98 -55
-7 -106 11 -123 45 -9 17 -4 19 62 25 40 4 104 13 142 20 83 17 116 18 133 8z
m2244 -12 c57 -11 122 -20 146 -20 40 0 42 -1 32 -20 -18 -34 -68 -53 -124
-46 -60 7 -233 86 -214 98 20 12 48 10 160 -12z m-1188 -175 c14 -90 77 -246
117 -290 18 -21 18 -22 -56 -95 l-75 -74 -74 73 -74 74 29 39 c35 49 83 171
100 256 7 34 16 62 20 62 4 0 10 -20 13 -45z m-23 -735 c25 -14 24 -38 -2 -66
-21 -23 -21 -24 -4 -50 16 -24 18 -25 27 -10 6 10 8 26 5 37 -4 16 0 19 26 18
18 0 26 -3 19 -6 -7 -3 -21 -22 -32 -43 -17 -33 -18 -40 -5 -50 8 -7 24 -10
34 -7 14 3 18 1 14 -9 -6 -17 -54 -19 -70 -3 -8 8 -17 8 -31 0 -11 -6 -34 -11
-51 -11 -55 0 -66 63 -16 96 19 13 23 21 18 48 -4 27 -1 36 18 50 28 19 25 19
50 6z m-518 -7 c-8 -2 -13 -22 -13 -44 l0 -39 46 0 46 0 -4 45 -3 45 35 -1
c19 0 29 -3 23 -6 -9 -3 -13 -32 -13 -93 0 -61 4 -90 13 -93 6 -3 -8 -5 -33
-5 -25 0 -39 2 -32 5 7 3 12 23 12 49 l0 44 -45 0 -45 0 0 -44 c0 -26 5 -46
13 -49 6 -3 -8 -5 -33 -5 -25 0 -39 2 -32 5 8 3 12 32 12 93 0 61 -4 90 -12
93 -7 3 7 5 32 5 25 0 39 -2 33 -5z m957 -63 c19 -38 36 -70 39 -70 3 0 20 32
38 70 28 63 34 70 60 69 15 0 22 -3 16 -6 -9 -3 -13 -32 -13 -93 0 -76 2 -89
18 -93 9 -3 -5 -5 -33 -6 -38 0 -46 2 -32 10 14 8 17 23 16 82 l-1 72 -40 -85
-40 -85 -38 80 -38 80 -1 -72 c-1 -48 3 -73 12 -76 6 -3 -4 -5 -23 -5 -19 0
-29 2 -22 5 8 3 12 32 12 93 0 61 -4 90 -12 93 -7 3 1 6 18 6 28 1 33 -4 64
-69z m-1270 -470 c11 -7 6 -8 -17 -4 -41 8 -42 -6 -3 -28 33 -19 40 -52 14
-62 -9 -4 -19 -4 -22 -1 -3 3 0 5 6 5 22 0 12 20 -13 30 -28 11 -40 32 -31 55
6 17 43 20 66 5z m252 -7 c10 -9 18 -25 18 -36 0 -53 -75 -77 -104 -35 -21 30
-20 44 4 68 24 24 57 26 82 3z m248 8 c0 -4 -11 -6 -25 -3 -20 3 -25 0 -25
-17 0 -13 7 -21 18 -22 15 -1 15 -2 -1 -6 -14 -4 -18 -12 -14 -29 3 -18 0 -24
-14 -24 -16 0 -19 8 -19 55 l0 55 40 0 c22 0 40 -4 40 -9z m217 2 c-16 -4 -18
-13 -15 -54 3 -43 1 -49 -17 -49 -18 0 -20 6 -17 49 3 41 1 50 -15 54 -10 3 5
5 32 5 28 0 42 -2 32 -5z m211 -34 c8 -26 9 -46 3 -57 -11 -19 -8 -23 -35 56
-14 39 -14 42 2 42 11 0 21 -14 30 -41z m57 11 c4 -17 11 -28 15 -25 5 3 4 -8
-1 -25 -13 -36 -25 -32 -34 11 -5 20 -10 27 -15 19 -4 -6 -7 2 -6 19 1 42 32
43 41 1z m264 -32 c20 -47 20 -48 1 -48 -12 0 -21 10 -25 30 -4 16 -10 32 -15
35 -4 3 -6 14 -3 26 7 26 17 16 42 -43z m245 56 c18 -7 22 -39 6 -49 -6 -4 -4
-16 6 -31 16 -23 15 -24 -5 -24 -11 0 -21 4 -21 8 0 5 -7 17 -16 28 -15 18
-15 18 -11 -8 3 -22 0 -28 -14 -28 -16 0 -19 8 -19 55 0 54 0 55 29 55 16 0
36 -3 45 -6z m256 -3 c0 -4 -11 -6 -25 -3 -21 3 -25 0 -25 -18 0 -16 4 -20 15
-16 9 3 15 0 15 -9 0 -9 -6 -12 -15 -9 -10 4 -15 0 -15 -14 0 -15 8 -22 28
-25 19 -3 14 -4 -15 -6 l-43 -1 0 55 0 55 40 0 c22 0 40 -4 40 -9z m-556 -75
c-3 -14 -10 -26 -14 -26 -5 0 -3 13 3 30 13 35 21 33 11 -4z m-1238 -23 c-6
-6 -36 9 -36 18 0 5 9 4 20 -3 10 -7 18 -14 16 -15z m-175 -283 c15 0 19 -7
19 -32 l0 -33 -13 25 c-16 32 -71 36 -75 5 -1 -14 11 -28 45 -50 82 -52 67
-115 -28 -115 -49 0 -49 0 -48 33 0 30 1 31 11 9 12 -24 48 -38 73 -28 30 11
15 44 -36 80 -42 31 -50 41 -47 64 3 28 42 56 66 47 8 -3 22 -5 33 -5z m2164
-5 c95 -46 67 -195 -38 -195 -21 0 -47 5 -58 10 -22 13 -49 61 -49 90 0 36 30
81 63 95 41 18 43 18 82 0z m-1695 -16 c0 -19 -1 -19 -16 -5 -8 9 -26 16 -40
16 -24 0 -24 -2 -24 -85 0 -69 3 -86 18 -94 13 -8 7 -10 -28 -10 -25 0 -39 3
-32 6 8 3 12 32 12 94 0 86 -1 89 -23 89 -13 0 -28 -5 -35 -12 -9 -9 -12 -8
-12 5 0 15 12 17 90 17 84 0 90 -1 90 -21z m323 14 c-20 -7 -17 -147 3 -167
20 -20 68 -20 88 0 20 20 23 160 4 167 -7 3 -2 6 12 6 l26 1 -7 -81 c-9 -99
-23 -119 -86 -119 -67 0 -83 23 -83 114 0 50 -4 76 -12 79 -7 3 5 5 27 5 22 0
34 -2 28 -5z m585 -18 c56 -47 51 -118 -10 -155 -25 -15 -50 -20 -103 -20 -52
1 -66 3 -52 11 14 8 17 24 17 87 0 47 -5 83 -12 90 -9 9 4 12 59 12 62 0 76
-3 101 -25z m364 -66 c-3 -68 0 -94 10 -100 8 -6 -4 -8 -32 -8 -25 0 -39 3
-32 6 8 3 12 32 12 93 0 61 -4 90 -12 93 -7 3 3 6 22 6 l35 1 -3 -91z"/>
<path d="M2450 1687 c0 -30 10 -40 27 -26 20 18 16 49 -7 49 -14 0 -20 -7 -20
-23z"/>
<path d="M2416 1604 c-29 -28 -12 -64 29 -64 33 0 35 9 13 46 -23 39 -22 39
-42 18z"/>
<path d="M1857 1173 c-4 -3 -7 -24 -7 -45 0 -31 3 -38 20 -38 17 0 20 7 20 45
0 43 -14 58 -33 38z"/>
<path d="M3110 1160 c0 -11 7 -20 15 -20 8 0 15 9 15 20 0 11 -7 20 -15 20 -8
0 -15 -9 -15 -20z"/>
<path d="M3516 768 c-9 -12 -16 -43 -16 -68 0 -57 22 -90 59 -90 42 0 66 33
66 90 0 33 -6 54 -19 69 -25 28 -70 27 -90 -1z"/>
<path d="M2700 700 l0 -90 31 0 c42 0 89 47 89 90 0 43 -47 90 -89 90 l-31 0
0 -90z"/>
</g>
</svg>
